<svg width="74" height="82" viewBox="0 0 74 82" fill="none" xmlns="http://www.w3.org/2000/svg">
<path d="M5.49131 63.776V65.072C5.49131 66.032 5.34731 66.928 5.05931 67.76C4.77131 68.592 4.32865 69.3173 3.73131 69.936C3.14465 70.5547 2.41398 71.0187 1.53931 71.328L0.483313 69.76C1.24065 69.504 1.87531 69.136 2.38731 68.656C2.89931 68.176 3.27265 67.632 3.50731 67.024C3.75265 66.4053 3.87531 65.7547 3.87531 65.072V63.776H5.49131ZM5.87531 63.776V65.248C5.87531 65.856 5.98731 66.4267 6.21131 66.96C6.44598 67.4933 6.80331 67.9733 7.28331 68.4C7.77398 68.8267 8.38198 69.152 9.10731 69.376L8.08331 70.912C7.25131 70.6347 6.54731 70.2187 5.97131 69.664C5.40598 69.0987 4.97931 68.4427 4.69131 67.696C4.41398 66.9493 4.27531 66.1333 4.27531 65.248V63.776H5.87531ZM11.9553 63.008V71.504H9.97131V63.008H11.9553ZM13.8913 66.368V68H11.4113V66.368H13.8913ZM7.29931 71.824C8.79265 71.824 9.97131 72.0693 10.8353 72.56C11.6993 73.0507 12.1313 73.728 12.1313 74.592C12.1313 75.1573 11.934 75.648 11.5393 76.064C11.1446 76.48 10.5846 76.7947 9.85931 77.008C9.13398 77.232 8.28065 77.344 7.29931 77.344C6.30731 77.344 5.44865 77.232 4.72331 77.008C3.99798 76.7947 3.43798 76.48 3.04331 76.064C2.64865 75.648 2.45131 75.1573 2.45131 74.592C2.45131 74.016 2.64865 73.5253 3.04331 73.12C3.43798 72.704 3.99798 72.384 4.72331 72.16C5.44865 71.936 6.30731 71.824 7.29931 71.824ZM7.28331 73.36C6.34465 73.36 5.62998 73.4667 5.13931 73.68C4.65931 73.8827 4.41931 74.1867 4.41931 74.592C4.41931 74.9867 4.65931 75.2907 5.13931 75.504C5.62998 75.7067 6.34465 75.808 7.28331 75.808C8.22198 75.808 8.93665 75.7067 9.42731 75.504C9.91798 75.2907 10.1633 74.9867 10.1633 74.592C10.1633 74.1867 9.91798 73.8827 9.42731 73.68C8.93665 73.4667 8.22198 73.36 7.28331 73.36ZM25.1717 66.336V67.936H22.4037V66.336H25.1717ZM26.6437 63.008V71.296H24.6437V63.008H26.6437ZM26.6437 71.888V77.184H17.1077V71.888H26.6437ZM19.0597 73.44V75.616H24.7077V73.44H19.0597ZM19.6197 64.32V65.264C19.6197 66.1813 19.4704 67.0453 19.1717 67.856C18.873 68.656 18.4197 69.36 17.8117 69.968C17.2144 70.576 16.4784 71.024 15.6037 71.312L14.5957 69.744C15.353 69.488 15.9877 69.1307 16.4997 68.672C17.0117 68.2133 17.3904 67.6907 17.6357 67.104C17.881 66.5067 18.0037 65.8933 18.0037 65.264V64.32H19.6197ZM20.0197 64.32V65.248C20.0197 65.8453 20.137 66.4213 20.3717 66.976C20.617 67.52 20.985 68.0107 21.4757 68.448C21.9664 68.8853 22.5744 69.2267 23.2997 69.472L22.3077 71.024C21.4544 70.7467 20.7344 70.32 20.1477 69.744C19.5717 69.1573 19.1397 68.48 18.8517 67.712C18.5744 66.944 18.4357 66.1227 18.4357 65.248V64.32H20.0197ZM22.8517 63.744V65.328H15.1397V63.744H22.8517ZM36.1876 64C36.9129 64 37.5582 64.208 38.1236 64.624C38.6996 65.04 39.1422 65.6373 39.4516 66.416C39.7716 67.184 39.9316 68.08 39.9316 69.104C39.9316 70.1387 39.7716 71.0453 39.4516 71.824C39.1422 72.592 38.6996 73.184 38.1236 73.6C37.5582 74.016 36.9129 74.224 36.1876 74.224C35.4622 74.224 34.8169 74.016 34.2516 73.6C33.6862 73.184 33.2436 72.5867 32.9236 71.808C32.6036 71.0293 32.4436 70.128 32.4436 69.104C32.4436 68.08 32.6036 67.184 32.9236 66.416C33.2436 65.6373 33.6862 65.04 34.2516 64.624C34.8169 64.208 35.4622 64 36.1876 64ZM36.1876 65.792C35.8249 65.792 35.5049 65.9253 35.2276 66.192C34.9502 66.448 34.7316 66.8213 34.5716 67.312C34.4222 67.8027 34.3476 68.4 34.3476 69.104C34.3476 69.808 34.4222 70.4107 34.5716 70.912C34.7316 71.4133 34.9502 71.792 35.2276 72.048C35.5049 72.304 35.8249 72.432 36.1876 72.432C36.5609 72.432 36.8862 72.304 37.1636 72.048C37.4409 71.792 37.6542 71.4133 37.8036 70.912C37.9636 70.4107 38.0436 69.808 38.0436 69.104C38.0436 68.4 37.9636 67.8027 37.8036 67.312C37.6542 66.8213 37.4409 66.448 37.1636 66.192C36.8862 65.9253 36.5609 65.792 36.1876 65.792ZM43.5636 63.008V77.344H41.5796V63.008H43.5636ZM45.6756 68.448V70.08H43.1316V68.448H45.6756ZM48.3479 72.464C49.7453 72.464 50.9453 72.4427 51.9479 72.4C52.9506 72.3467 53.9693 72.24 55.0039 72.08L55.1799 73.664C54.1346 73.824 53.0946 73.936 52.0599 74C51.0253 74.0533 49.7879 74.08 48.3479 74.08H47.1159V72.464H48.3479ZM54.3319 64.192V65.808H49.0679V73.008H47.1159V64.192H54.3319ZM53.7399 68.192V69.744H48.6199V68.192H53.7399ZM58.2519 63.008V77.344H56.2679V63.008H58.2519ZM71.0203 63.536V65.072H61.9323V63.536H71.0203ZM71.7563 63.536V64.768C71.7563 65.6213 71.735 66.368 71.6923 67.008C71.6603 67.6373 71.5643 68.3307 71.4043 69.088L69.4523 68.896C69.6123 68.1493 69.7136 67.4827 69.7563 66.896C69.799 66.2987 69.8203 65.5893 69.8203 64.768V63.536H71.7563ZM70.4123 67.296L61.7403 67.648L61.5163 66.144L70.4123 65.936V67.296ZM73.2603 68.576V70.112H60.3483V68.576H73.2603ZM71.8523 71.008V74.768H63.7403V76.336H61.7723V73.344H69.9003V72.496H61.7563V71.008H71.8523ZM72.3483 75.68V77.184H61.7723V75.68H72.3483Z" fill="#B6B6B6"/>
<path d="M19.4583 8.33333L49.8594 38.0131M19.4583 8.33333C20.5894 7.042 22.2788 6.22222 24.1663 6.22222H34.4435M19.4583 8.33333C18.5486 9.37192 18 10.7155 18 12.183V34.0392C18 37.3313 20.7608 40 24.1663 40H46.7762C50.1818 40 52.9425 37.3313 52.9425 34.0392V25.098M34.4435 25.098L21.0832 38.0131M49.0115 8.75556V8.62856M56 8.6087C56 13.0145 49.0115 18.8889 49.0115 18.8889C49.0115 18.8889 42.023 13.0145 42.023 8.6087C42.023 4.95881 45.1518 2 49.0115 2C52.8711 2 56 4.95881 56 8.6087Z" stroke="#B6B6B6" stroke-width="4" stroke-linecap="round" stroke-linejoin="round"/>
</svg>
