<svg width="43" height="82" viewBox="0 0 43 82" fill="current" xmlns="http://www.w3.org/2000/svg">
<path d="M14.5114 74.112V75.728H1.53544V74.112H14.5114ZM8.99144 71.36V74.768H7.00744V71.36H8.99144ZM13.0394 63.936V68.656H4.99144V71.12H3.03944V67.12H11.0714V65.504H3.00744V63.936H13.0394ZM13.3594 70.336V71.92H3.03944V70.336H13.3594ZM25.9518 64.32V65.904H16.8478V64.32H25.9518ZM28.4798 73.824V75.44H15.5198V73.824H28.4798ZM26.8638 64.32V66C26.8638 67.3227 26.8318 68.48 26.7678 69.472C26.7145 70.4533 26.5758 71.6 26.3518 72.912L24.3678 72.752C24.6025 71.5253 24.7465 70.4213 24.7998 69.44C24.8638 68.4587 24.8958 67.312 24.8958 66V64.32H26.8638ZM41.3922 63.008V73.328H39.3922V63.008H41.3922ZM41.7442 75.488V77.072H31.8722V75.488H41.7442ZM33.8402 72.288V76.128H31.8722V72.288H33.8402ZM33.5842 63.92C34.3095 63.92 34.9655 64.0747 35.5522 64.384C36.1495 64.6933 36.6189 65.1253 36.9602 65.68C37.3015 66.2347 37.4722 66.8587 37.4722 67.552C37.4722 68.2347 37.3015 68.8533 36.9602 69.408C36.6189 69.9627 36.1495 70.4 35.5522 70.72C34.9655 71.0293 34.3095 71.184 33.5842 71.184C32.8589 71.184 32.1975 71.0293 31.6002 70.72C31.0135 70.4 30.5495 69.9627 30.2082 69.408C29.8669 68.8533 29.6962 68.2347 29.6962 67.552C29.6962 66.8587 29.8669 66.24 30.2082 65.696C30.5495 65.1413 31.0135 64.7093 31.6002 64.4C32.1975 64.08 32.8589 63.92 33.5842 63.92ZM33.5842 65.632C33.2109 65.632 32.8749 65.712 32.5762 65.872C32.2882 66.0213 32.0589 66.2453 31.8882 66.544C31.7175 66.832 31.6322 67.168 31.6322 67.552C31.6322 67.936 31.7175 68.272 31.8882 68.56C32.0589 68.848 32.2935 69.072 32.5922 69.232C32.8909 69.3813 33.2215 69.456 33.5842 69.456C33.9575 69.456 34.2882 69.3813 34.5762 69.232C34.8749 69.072 35.1095 68.848 35.2802 68.56C35.4509 68.272 35.5362 67.936 35.5362 67.552C35.5362 67.168 35.4509 66.832 35.2802 66.544C35.1095 66.2453 34.8749 66.0213 34.5762 65.872C34.2882 65.712 33.9575 65.632 33.5842 65.632Z" fill="current"/>
<path d="M0 40.5643C0 32.1086 7.06429 25.254 21.5 25.254C35.9357 25.254 43 32.1086 43 40.5643C43 41.9095 42.0185 43 40.8078 43H2.19216C0.981462 43 0 41.9095 0 40.5643Z" fill="current"/>
<path d="M29.5625 8.0625C29.5625 12.5153 25.9528 16.125 21.5 16.125C17.0472 16.125 13.4375 12.5153 13.4375 8.0625C13.4375 3.6097 17.0472 0 21.5 0C25.9528 0 29.5625 3.6097 29.5625 8.0625Z" fill="current"/>
</svg>
