<svg width="74" height="82" viewBox="0 0 74 82" fill="current" xmlns="http://www.w3.org/2000/svg">
<path d="M7.98731 64.352V73.84H1.15531V64.352H7.98731ZM3.10731 65.92V72.272H6.03531V65.92H3.10731ZM11.9073 63.008V77.344H9.92331V63.008H11.9073ZM14.0193 68.448V70.08H11.4753V68.448H14.0193ZM26.5477 62.976V77.36H24.5477V62.976H26.5477ZM18.8517 64C19.5664 64 20.2064 64.208 20.7717 64.624C21.3477 65.04 21.7957 65.6373 22.1157 66.416C22.4357 67.184 22.5957 68.08 22.5957 69.104C22.5957 70.128 22.4357 71.0293 22.1157 71.808C21.7957 72.5867 21.3477 73.184 20.7717 73.6C20.2064 74.016 19.5664 74.224 18.8517 74.224C18.1264 74.224 17.4757 74.016 16.8997 73.6C16.3344 73.184 15.8864 72.592 15.5557 71.824C15.2357 71.0453 15.0757 70.1387 15.0757 69.104C15.0757 68.08 15.2357 67.184 15.5557 66.416C15.8864 65.6373 16.3344 65.04 16.8997 64.624C17.4757 64.208 18.1264 64 18.8517 64ZM18.8517 65.792C18.4784 65.792 18.153 65.9253 17.8757 66.192C17.5984 66.448 17.3797 66.8213 17.2197 67.312C17.0704 67.8027 16.9957 68.4 16.9957 69.104C16.9957 69.808 17.0704 70.4107 17.2197 70.912C17.3797 71.4133 17.5984 71.792 17.8757 72.048C18.153 72.304 18.4784 72.432 18.8517 72.432C19.2144 72.432 19.5344 72.304 19.8117 72.048C20.089 71.792 20.3024 71.4133 20.4517 70.912C20.6117 70.4107 20.6917 69.808 20.6917 69.104C20.6917 68.4107 20.6117 67.8187 20.4517 67.328C20.3024 66.8267 20.089 66.448 19.8117 66.192C19.5344 65.9253 19.2144 65.792 18.8517 65.792ZM44.7636 63.008V77.344H42.8756V63.008H44.7636ZM40.5876 68.256V69.984H38.6196V68.256H40.5876ZM41.8836 63.296V76.656H40.0436V63.296H41.8836ZM38.9716 64.64V66.208H32.4436V64.64H38.9716ZM32.2036 72.448C35.2436 72.448 37.5742 72.336 39.1956 72.112L39.3396 73.536C38.3476 73.7493 37.2489 73.8933 36.0436 73.968C34.8382 74.032 33.6276 74.064 32.4116 74.064L32.2036 72.448ZM35.1316 65.648V72.864H33.3556V65.648H35.1316ZM38.0436 65.648V72.864H36.2516V65.648H38.0436ZM58.2039 62.976V77.36H56.2039V62.976H58.2039ZM50.5079 64C51.2226 64 51.8626 64.208 52.4279 64.624C53.0039 65.04 53.4519 65.6373 53.7719 66.416C54.0919 67.184 54.2519 68.08 54.2519 69.104C54.2519 70.128 54.0919 71.0293 53.7719 71.808C53.4519 72.5867 53.0039 73.184 52.4279 73.6C51.8626 74.016 51.2226 74.224 50.5079 74.224C49.7826 74.224 49.1319 74.016 48.5559 73.6C47.9906 73.184 47.5426 72.592 47.2119 71.824C46.8919 71.0453 46.7319 70.1387 46.7319 69.104C46.7319 68.08 46.8919 67.184 47.2119 66.416C47.5426 65.6373 47.9906 65.04 48.5559 64.624C49.1319 64.208 49.7826 64 50.5079 64ZM50.5079 65.792C50.1346 65.792 49.8093 65.9253 49.5319 66.192C49.2546 66.448 49.0359 66.8213 48.8759 67.312C48.7266 67.8027 48.6519 68.4 48.6519 69.104C48.6519 69.808 48.7266 70.4107 48.8759 70.912C49.0359 71.4133 49.2546 71.792 49.5319 72.048C49.8093 72.304 50.1346 72.432 50.5079 72.432C50.8706 72.432 51.1906 72.304 51.4679 72.048C51.7453 71.792 51.9586 71.4133 52.1079 70.912C52.2679 70.4107 52.3479 69.808 52.3479 69.104C52.3479 68.4107 52.2679 67.8187 52.1079 67.328C51.9586 66.8267 51.7453 66.448 51.4679 66.192C51.1906 65.9253 50.8706 65.792 50.5079 65.792ZM65.3723 65.232V66.928C65.3723 68.048 65.2123 69.12 64.8923 70.144C64.583 71.168 64.1243 72.0747 63.5163 72.864C62.9083 73.6533 62.1776 74.2453 61.3243 74.64L60.2043 73.072C60.9616 72.7307 61.607 72.2347 62.1403 71.584C62.6843 70.9227 63.095 70.192 63.3723 69.392C63.6496 68.5813 63.7883 67.76 63.7883 66.928V65.232H65.3723ZM65.7883 65.232V66.928C65.7883 67.728 65.9216 68.512 66.1883 69.28C66.4656 70.0373 66.8763 70.72 67.4203 71.328C67.9643 71.936 68.615 72.4 69.3723 72.72L68.2843 74.288C67.4203 73.904 66.679 73.3387 66.0603 72.592C65.4523 71.8453 64.9936 70.9867 64.6843 70.016C64.375 69.0453 64.2203 68.016 64.2203 66.928V65.232H65.7883ZM68.7963 64.384V66.016H60.7643V64.384H68.7963ZM72.1723 63.008V77.344H70.1883V63.008H72.1723Z" fill="current"/>
<path d="M15 40.5643C15 32.1086 22.0643 25.254 36.5 25.254C50.9357 25.254 58 32.1086 58 40.5643C58 41.9095 57.0185 43 55.8078 43H17.1922C15.9815 43 15 41.9095 15 40.5643Z" fill="current"/>
<path d="M44.5625 8.0625C44.5625 12.5153 40.9528 16.125 36.5 16.125C32.0472 16.125 28.4375 12.5153 28.4375 8.0625C28.4375 3.6097 32.0472 0 36.5 0C40.9528 0 44.5625 3.6097 44.5625 8.0625Z" fill="current"/>
</svg>
