<svg width="74" height="71" viewBox="0 0 74 71" fill="none" xmlns="http://www.w3.org/2000/svg">
<path d="M5.49131 52.776V54.072C5.49131 55.032 5.34731 55.928 5.05931 56.76C4.77131 57.592 4.32865 58.3173 3.73131 58.936C3.14465 59.5547 2.41398 60.0187 1.53931 60.328L0.483313 58.76C1.24065 58.504 1.87531 58.136 2.38731 57.656C2.89931 57.176 3.27265 56.632 3.50731 56.024C3.75265 55.4053 3.87531 54.7547 3.87531 54.072V52.776H5.49131ZM5.87531 52.776V54.248C5.87531 54.856 5.98731 55.4267 6.21131 55.96C6.44598 56.4933 6.80331 56.9733 7.28331 57.4C7.77398 57.8267 8.38198 58.152 9.10731 58.376L8.08331 59.912C7.25131 59.6347 6.54731 59.2187 5.97131 58.664C5.40598 58.0987 4.97931 57.4427 4.69131 56.696C4.41398 55.9493 4.27531 55.1333 4.27531 54.248V52.776H5.87531ZM11.9553 52.008V60.504H9.97131V52.008H11.9553ZM13.8913 55.368V57H11.4113V55.368H13.8913ZM7.29931 60.824C8.79265 60.824 9.97131 61.0693 10.8353 61.56C11.6993 62.0507 12.1313 62.728 12.1313 63.592C12.1313 64.1573 11.934 64.648 11.5393 65.064C11.1446 65.48 10.5846 65.7947 9.85931 66.008C9.13398 66.232 8.28065 66.344 7.29931 66.344C6.30731 66.344 5.44865 66.232 4.72331 66.008C3.99798 65.7947 3.43798 65.48 3.04331 65.064C2.64865 64.648 2.45131 64.1573 2.45131 63.592C2.45131 63.016 2.64865 62.5253 3.04331 62.12C3.43798 61.704 3.99798 61.384 4.72331 61.16C5.44865 60.936 6.30731 60.824 7.29931 60.824ZM7.28331 62.36C6.34465 62.36 5.62998 62.4667 5.13931 62.68C4.65931 62.8827 4.41931 63.1867 4.41931 63.592C4.41931 63.9867 4.65931 64.2907 5.13931 64.504C5.62998 64.7067 6.34465 64.808 7.28331 64.808C8.22198 64.808 8.93665 64.7067 9.42731 64.504C9.91798 64.2907 10.1633 63.9867 10.1633 63.592C10.1633 63.1867 9.91798 62.8827 9.42731 62.68C8.93665 62.4667 8.22198 62.36 7.28331 62.36ZM25.1717 55.336V56.936H22.4037V55.336H25.1717ZM26.6437 52.008V60.296H24.6437V52.008H26.6437ZM26.6437 60.888V66.184H17.1077V60.888H26.6437ZM19.0597 62.44V64.616H24.7077V62.44H19.0597ZM19.6197 53.32V54.264C19.6197 55.1813 19.4704 56.0453 19.1717 56.856C18.873 57.656 18.4197 58.36 17.8117 58.968C17.2144 59.576 16.4784 60.024 15.6037 60.312L14.5957 58.744C15.353 58.488 15.9877 58.1307 16.4997 57.672C17.0117 57.2133 17.3904 56.6907 17.6357 56.104C17.881 55.5067 18.0037 54.8933 18.0037 54.264V53.32H19.6197ZM20.0197 53.32V54.248C20.0197 54.8453 20.137 55.4213 20.3717 55.976C20.617 56.52 20.985 57.0107 21.4757 57.448C21.9664 57.8853 22.5744 58.2267 23.2997 58.472L22.3077 60.024C21.4544 59.7467 20.7344 59.32 20.1477 58.744C19.5717 58.1573 19.1397 57.48 18.8517 56.712C18.5744 55.944 18.4357 55.1227 18.4357 54.248V53.32H20.0197ZM22.8517 52.744V54.328H15.1397V52.744H22.8517ZM36.1876 53C36.9129 53 37.5582 53.208 38.1236 53.624C38.6996 54.04 39.1422 54.6373 39.4516 55.416C39.7716 56.184 39.9316 57.08 39.9316 58.104C39.9316 59.1387 39.7716 60.0453 39.4516 60.824C39.1422 61.592 38.6996 62.184 38.1236 62.6C37.5582 63.016 36.9129 63.224 36.1876 63.224C35.4622 63.224 34.8169 63.016 34.2516 62.6C33.6862 62.184 33.2436 61.5867 32.9236 60.808C32.6036 60.0293 32.4436 59.128 32.4436 58.104C32.4436 57.08 32.6036 56.184 32.9236 55.416C33.2436 54.6373 33.6862 54.04 34.2516 53.624C34.8169 53.208 35.4622 53 36.1876 53ZM36.1876 54.792C35.8249 54.792 35.5049 54.9253 35.2276 55.192C34.9502 55.448 34.7316 55.8213 34.5716 56.312C34.4222 56.8027 34.3476 57.4 34.3476 58.104C34.3476 58.808 34.4222 59.4107 34.5716 59.912C34.7316 60.4133 34.9502 60.792 35.2276 61.048C35.5049 61.304 35.8249 61.432 36.1876 61.432C36.5609 61.432 36.8862 61.304 37.1636 61.048C37.4409 60.792 37.6542 60.4133 37.8036 59.912C37.9636 59.4107 38.0436 58.808 38.0436 58.104C38.0436 57.4 37.9636 56.8027 37.8036 56.312C37.6542 55.8213 37.4409 55.448 37.1636 55.192C36.8862 54.9253 36.5609 54.792 36.1876 54.792ZM43.5636 52.008V66.344H41.5796V52.008H43.5636ZM45.6756 57.448V59.08H43.1316V57.448H45.6756ZM48.3479 61.464C49.7453 61.464 50.9453 61.4427 51.9479 61.4C52.9506 61.3467 53.9693 61.24 55.0039 61.08L55.1799 62.664C54.1346 62.824 53.0946 62.936 52.0599 63C51.0253 63.0533 49.7879 63.08 48.3479 63.08H47.1159V61.464H48.3479ZM54.3319 53.192V54.808H49.0679V62.008H47.1159V53.192H54.3319ZM53.7399 57.192V58.744H48.6199V57.192H53.7399ZM58.2519 52.008V66.344H56.2679V52.008H58.2519ZM71.0203 52.536V54.072H61.9323V52.536H71.0203ZM71.7563 52.536V53.768C71.7563 54.6213 71.735 55.368 71.6923 56.008C71.6603 56.6373 71.5643 57.3307 71.4043 58.088L69.4523 57.896C69.6123 57.1493 69.7136 56.4827 69.7563 55.896C69.799 55.2987 69.8203 54.5893 69.8203 53.768V52.536H71.7563ZM70.4123 56.296L61.7403 56.648L61.5163 55.144L70.4123 54.936V56.296ZM73.2603 57.576V59.112H60.3483V57.576H73.2603ZM71.8523 60.008V63.768H63.7403V65.336H61.7723V62.344H69.9003V61.496H61.7563V60.008H71.8523ZM72.3483 64.68V66.184H61.7723V64.68H72.3483Z" fill="#4AB2C9"/>
<path d="M19.4583 8.33333L49.8594 38.0131M19.4583 8.33333C20.5894 7.042 22.2788 6.22222 24.1663 6.22222H34.4435M19.4583 8.33333C18.5486 9.37192 18 10.7155 18 12.183V34.0392C18 37.3313 20.7608 40 24.1663 40H46.7762C50.1818 40 52.9425 37.3313 52.9425 34.0392V25.098M34.4435 25.098L21.0832 38.0131M49.0115 8.75556V8.62856M56 8.6087C56 13.0145 49.0115 18.8889 49.0115 18.8889C49.0115 18.8889 42.023 13.0145 42.023 8.6087C42.023 4.95881 45.1518 2 49.0115 2C52.8711 2 56 4.95881 56 8.6087Z" stroke="#4AB2C9" stroke-width="4" stroke-linecap="round" stroke-linejoin="round"/>
</svg>
