<svg width="228" height="35" viewBox="0 0 228 35" fill="none" xmlns="http://www.w3.org/2000/svg">
<rect x="0.273438" y="0.430786" width="227.397" height="34.1096" rx="4.54795" fill="#FEE500"/>
<path d="M95.3127 13.4633C95.3014 16.9539 93.5618 19.1937 90.7648 20.6036L90.1394 19.8304C91.7085 19.1141 92.9592 18.0454 93.6641 16.6469L90.4805 16.988L90.2986 16.1011L93.9938 15.8169C94.1416 15.3507 94.2326 14.8504 94.2553 14.316H90.6966V13.4633H95.3127ZM97.8255 12.4173V16.4195H99.4059V17.2495H97.8255V22.3545H96.8249V12.4173H97.8255ZM105.15 13.4633C105.139 16.9539 103.399 19.1937 100.602 20.6036L99.977 19.8304C101.546 19.1141 102.797 18.0454 103.502 16.6469L100.318 16.988L100.136 16.1011L103.831 15.8169C103.979 15.3507 104.07 14.8504 104.093 14.316H100.534V13.4633H105.15ZM107.663 12.4173V16.4195H109.243V17.2495H107.663V22.3545H106.663V12.4173H107.663ZM118.012 15.7941C118.012 17.3404 116.75 18.4092 114.806 18.557V20.2398H118.797V21.0698H109.826V20.2398H113.794V18.5456C111.861 18.3865 110.611 17.3404 110.611 15.7941C110.611 14.1341 112.089 13.0313 114.306 13.0313C116.546 13.0313 118.012 14.1341 118.012 15.7941ZM116.978 15.7941C116.978 14.6685 115.92 13.8726 114.306 13.8726C112.703 13.8726 111.645 14.6685 111.645 15.7941C111.645 16.9311 112.703 17.7156 114.306 17.7156C115.909 17.7156 116.978 16.9311 116.978 15.7941ZM131.621 21.0925H122.65V20.2739H126.607V18.7048H123.731V15.5099H129.506V14.0545H123.708V13.2359H130.507V16.3285H124.731V17.8862H130.78V18.7048H127.619V20.2739H131.621V21.0925ZM141.459 20.9106H132.488V20.0919H141.459V20.9106ZM140.265 13.5429C140.265 15.8055 140.094 18.0908 139.799 19.3756L138.821 19.2506C139.071 18.2955 139.242 15.851 139.242 14.3502H133.42V13.5429H140.265ZM150.478 19.6371H149.466V12.4173H150.478V19.6371ZM150.705 22.0476H143.94V18.955H144.952V21.2403H150.705V22.0476ZM145.202 13.0881C146.737 13.0881 147.863 14.1455 147.863 15.5667C147.863 16.9993 146.737 17.9885 145.202 17.9885C143.679 17.9885 142.553 16.9993 142.553 15.5781C142.553 14.1455 143.679 13.0881 145.202 13.0881ZM145.202 13.9522C144.27 13.9522 143.61 14.6344 143.61 15.5554C143.61 16.465 144.27 17.1471 145.202 17.1471C146.18 17.1471 146.794 16.4763 146.794 15.5667C146.794 14.623 146.18 13.9522 145.202 13.9522Z" fill="black" fill-opacity="0.85"/>
<g clip-path="url(#clip0_29_4979)">
<path fill-rule="evenodd" clip-rule="evenodd" d="M17.7047 11.0246C13.9369 11.0246 10.8828 13.3966 10.8828 16.3222C10.8828 18.1416 12.0641 19.7456 13.8629 20.6996L13.106 23.479C13.0392 23.7246 13.3186 23.9203 13.5331 23.778L16.8507 21.5768C17.1307 21.604 17.4152 21.6198 17.7047 21.6198C21.4723 21.6198 24.5266 19.2479 24.5266 16.3222C24.5266 13.3966 21.4723 11.0246 17.7047 11.0246" fill="black"/>
</g>
<defs>
<clipPath id="clip0_29_4979">
<rect width="13.6438" height="12.8858" fill="white" transform="translate(10.8828 11.0427)"/>
</clipPath>
</defs>
</svg>
