<svg width="74" height="74" viewBox="0 0 74 74" fill="none" xmlns="http://www.w3.org/2000/svg">
<path d="M16.0779 64.064H29.4859V65.792H16.0779V64.064ZM21.6939 61.264H23.8219V64.768H21.6939V61.264ZM17.5819 53.568H27.9819V58.496H19.7259V60.992H17.6139V56.832H25.8699V55.248H17.5819V53.568ZM17.6139 60.144H28.3179V61.856H17.6139V60.144ZM32.1566 53.968H41.5486V55.648H32.1566V53.968ZM30.7966 63.76H44.1886V65.488H30.7966V63.76ZM40.4286 53.968H42.5406V55.728C42.5406 57.808 42.5406 59.824 42.0126 62.864L39.8846 62.688C40.4286 59.84 40.4286 57.728 40.4286 55.728V53.968ZM55.6754 52.624H57.8194V63.264H55.6754V52.624ZM47.9474 65.472H58.1874V67.168H47.9474V65.472ZM47.9474 62.192H50.0754V66.16H47.9474V62.192ZM49.7554 53.552C52.0274 53.552 53.7714 55.12 53.7714 57.312C53.7714 59.488 52.0274 61.072 49.7554 61.072C47.4834 61.072 45.7234 59.488 45.7234 57.312C45.7234 55.12 47.4834 53.552 49.7554 53.552ZM49.7554 55.392C48.6514 55.392 47.8034 56.096 47.8034 57.312C47.8034 58.512 48.6514 59.216 49.7554 59.216C50.8434 59.216 51.6914 58.512 51.6914 57.312C51.6914 56.096 50.8434 55.392 49.7554 55.392Z" fill="#4AB2C9"/>
<path d="M15 40.5643C15 32.1086 22.0643 25.254 36.5 25.254C50.9357 25.254 58 32.1086 58 40.5643C58 41.9095 57.0185 43 55.8078 43H17.1922C15.9815 43 15 41.9095 15 40.5643Z" fill="#4AB2C9"/>
<path d="M44.5625 8.0625C44.5625 12.5153 40.9528 16.125 36.5 16.125C32.0472 16.125 28.4375 12.5153 28.4375 8.0625C28.4375 3.6097 32.0472 0 36.5 0C40.9528 0 44.5625 3.6097 44.5625 8.0625Z" fill="#4AB2C9"/>
</svg>
