<svg width="42" height="72" viewBox="0 0 42 72" fill="none" xmlns="http://www.w3.org/2000/svg">
<path d="M5.57544 55.232V56.928C5.57544 58.048 5.41544 59.12 5.09544 60.144C4.7861 61.168 4.32744 62.0747 3.71944 62.864C3.11144 63.6533 2.38077 64.2453 1.52744 64.64L0.407438 63.072C1.16477 62.7307 1.8101 62.2347 2.34344 61.584C2.88744 60.9227 3.2981 60.192 3.57544 59.392C3.85277 58.5813 3.99144 57.76 3.99144 56.928V55.232H5.57544ZM5.99144 55.232V56.928C5.99144 57.728 6.12477 58.512 6.39144 59.28C6.66877 60.0373 7.07944 60.72 7.62344 61.328C8.16744 61.936 8.8181 62.4 9.57544 62.72L8.48744 64.288C7.62344 63.904 6.8821 63.3387 6.26344 62.592C5.65544 61.8453 5.19677 60.9867 4.88744 60.016C4.5781 59.0453 4.42344 58.016 4.42344 56.928V55.232H5.99144ZM8.99944 54.384V56.016H0.967438V54.384H8.99944ZM12.3754 53.008V67.344H10.3914V53.008H12.3754ZM26.0878 59.408V60.992H16.0398V59.408H26.0878ZM27.4958 64.064V65.696H14.5198V64.064H27.4958ZM21.9758 60.128V64.608H19.9918V60.128H21.9758ZM25.9758 53.984V55.584H18.0238V60.112H16.0398V53.984H25.9758ZM39.8962 62.992V67.184H30.0082V62.992H39.8962ZM31.9442 64.464V65.712H37.9602V64.464H31.9442ZM40.7602 54.016V55.52H29.1122V54.016H40.7602ZM34.9682 55.888C36.5149 55.888 37.6989 56.064 38.5202 56.416C39.3415 56.768 39.7522 57.2747 39.7522 57.936C39.7522 58.5973 39.3415 59.104 38.5202 59.456C37.6989 59.808 36.5149 59.984 34.9682 59.984C33.4322 59.984 32.2535 59.808 31.4322 59.456C30.6109 59.104 30.2002 58.5973 30.2002 57.936C30.2002 57.2747 30.6055 56.768 31.4162 56.416C32.2375 56.064 33.4215 55.888 34.9682 55.888ZM34.9682 57.216C34.0402 57.216 33.3629 57.2747 32.9362 57.392C32.5202 57.5093 32.3122 57.6907 32.3122 57.936C32.3122 58.1813 32.5255 58.3627 32.9522 58.48C33.3789 58.5867 34.0509 58.64 34.9682 58.64C35.8855 58.64 36.5575 58.5867 36.9842 58.48C37.4215 58.3627 37.6402 58.1813 37.6402 57.936C37.6402 57.6907 37.4269 57.5093 37.0002 57.392C36.5735 57.2747 35.8962 57.216 34.9682 57.216ZM35.9602 52.88V55.072H33.9762V52.88H35.9602ZM41.4482 60.704V62.224H28.4882V60.704H41.4482ZM35.9602 59.504V61.504H33.9762V59.504H35.9602Z" fill="#4AB2C9"/>
<path d="M21 41C21 41 37 26.7391 37 16.0435C37 7.18291 29.8366 0 21 0C12.1634 0 5 7.18291 5 16.0435C5 26.7391 21 41 21 41Z" fill="#4AB2C9"/>
<path d="M26.1118 15.3753C26.1118 18.2058 23.8234 20.5003 21.0007 20.5003C18.1779 20.5003 15.8895 18.2058 15.8895 15.3753C15.8895 12.5449 18.1779 10.2503 21.0007 10.2503C23.8234 10.2503 26.1118 12.5449 26.1118 15.3753Z" fill="white"/>
</svg>
