<svg width="74" height="74" viewBox="0 0 74 74" fill="none" xmlns="http://www.w3.org/2000/svg">
<path d="M7.98731 56.352V65.84H1.15531V56.352H7.98731ZM3.10731 57.92V64.272H6.03531V57.92H3.10731ZM11.9073 55.008V69.344H9.92331V55.008H11.9073ZM14.0193 60.448V62.08H11.4753V60.448H14.0193ZM26.5477 54.976V69.36H24.5477V54.976H26.5477ZM18.8517 56C19.5664 56 20.2064 56.208 20.7717 56.624C21.3477 57.04 21.7957 57.6373 22.1157 58.416C22.4357 59.184 22.5957 60.08 22.5957 61.104C22.5957 62.128 22.4357 63.0293 22.1157 63.808C21.7957 64.5867 21.3477 65.184 20.7717 65.6C20.2064 66.016 19.5664 66.224 18.8517 66.224C18.1264 66.224 17.4757 66.016 16.8997 65.6C16.3344 65.184 15.8864 64.592 15.5557 63.824C15.2357 63.0453 15.0757 62.1387 15.0757 61.104C15.0757 60.08 15.2357 59.184 15.5557 58.416C15.8864 57.6373 16.3344 57.04 16.8997 56.624C17.4757 56.208 18.1264 56 18.8517 56ZM18.8517 57.792C18.4784 57.792 18.153 57.9253 17.8757 58.192C17.5984 58.448 17.3797 58.8213 17.2197 59.312C17.0704 59.8027 16.9957 60.4 16.9957 61.104C16.9957 61.808 17.0704 62.4107 17.2197 62.912C17.3797 63.4133 17.5984 63.792 17.8757 64.048C18.153 64.304 18.4784 64.432 18.8517 64.432C19.2144 64.432 19.5344 64.304 19.8117 64.048C20.089 63.792 20.3024 63.4133 20.4517 62.912C20.6117 62.4107 20.6917 61.808 20.6917 61.104C20.6917 60.4107 20.6117 59.8187 20.4517 59.328C20.3024 58.8267 20.089 58.448 19.8117 58.192C19.5344 57.9253 19.2144 57.792 18.8517 57.792ZM44.7636 55.008V69.344H42.8756V55.008H44.7636ZM40.5876 60.256V61.984H38.6196V60.256H40.5876ZM41.8836 55.296V68.656H40.0436V55.296H41.8836ZM38.9716 56.64V58.208H32.4436V56.64H38.9716ZM32.2036 64.448C35.2436 64.448 37.5742 64.336 39.1956 64.112L39.3396 65.536C38.3476 65.7493 37.2489 65.8933 36.0436 65.968C34.8382 66.032 33.6276 66.064 32.4116 66.064L32.2036 64.448ZM35.1316 57.648V64.864H33.3556V57.648H35.1316ZM38.0436 57.648V64.864H36.2516V57.648H38.0436ZM58.2039 54.976V69.36H56.2039V54.976H58.2039ZM50.5079 56C51.2226 56 51.8626 56.208 52.4279 56.624C53.0039 57.04 53.4519 57.6373 53.7719 58.416C54.0919 59.184 54.2519 60.08 54.2519 61.104C54.2519 62.128 54.0919 63.0293 53.7719 63.808C53.4519 64.5867 53.0039 65.184 52.4279 65.6C51.8626 66.016 51.2226 66.224 50.5079 66.224C49.7826 66.224 49.1319 66.016 48.5559 65.6C47.9906 65.184 47.5426 64.592 47.2119 63.824C46.8919 63.0453 46.7319 62.1387 46.7319 61.104C46.7319 60.08 46.8919 59.184 47.2119 58.416C47.5426 57.6373 47.9906 57.04 48.5559 56.624C49.1319 56.208 49.7826 56 50.5079 56ZM50.5079 57.792C50.1346 57.792 49.8093 57.9253 49.5319 58.192C49.2546 58.448 49.0359 58.8213 48.8759 59.312C48.7266 59.8027 48.6519 60.4 48.6519 61.104C48.6519 61.808 48.7266 62.4107 48.8759 62.912C49.0359 63.4133 49.2546 63.792 49.5319 64.048C49.8093 64.304 50.1346 64.432 50.5079 64.432C50.8706 64.432 51.1906 64.304 51.4679 64.048C51.7453 63.792 51.9586 63.4133 52.1079 62.912C52.2679 62.4107 52.3479 61.808 52.3479 61.104C52.3479 60.4107 52.2679 59.8187 52.1079 59.328C51.9586 58.8267 51.7453 58.448 51.4679 58.192C51.1906 57.9253 50.8706 57.792 50.5079 57.792ZM65.3723 57.232V58.928C65.3723 60.048 65.2123 61.12 64.8923 62.144C64.583 63.168 64.1243 64.0747 63.5163 64.864C62.9083 65.6533 62.1776 66.2453 61.3243 66.64L60.2043 65.072C60.9616 64.7307 61.607 64.2347 62.1403 63.584C62.6843 62.9227 63.095 62.192 63.3723 61.392C63.6496 60.5813 63.7883 59.76 63.7883 58.928V57.232H65.3723ZM65.7883 57.232V58.928C65.7883 59.728 65.9216 60.512 66.1883 61.28C66.4656 62.0373 66.8763 62.72 67.4203 63.328C67.9643 63.936 68.615 64.4 69.3723 64.72L68.2843 66.288C67.4203 65.904 66.679 65.3387 66.0603 64.592C65.4523 63.8453 64.9936 62.9867 64.6843 62.016C64.375 61.0453 64.2203 60.016 64.2203 58.928V57.232H65.7883ZM68.7963 56.384V58.016H60.7643V56.384H68.7963ZM72.1723 55.008V69.344H70.1883V55.008H72.1723Z" fill="#B6B6B6"/>
<path d="M15 40.5643C15 32.1086 22.0643 25.254 36.5 25.254C50.9357 25.254 58 32.1086 58 40.5643C58 41.9095 57.0185 43 55.8078 43H17.1922C15.9815 43 15 41.9095 15 40.5643Z" fill="#B6B6B6"/>
<path d="M44.5625 8.0625C44.5625 12.5153 40.9528 16.125 36.5 16.125C32.0472 16.125 28.4375 12.5153 28.4375 8.0625C28.4375 3.6097 32.0472 0 36.5 0C40.9528 0 44.5625 3.6097 44.5625 8.0625Z" fill="#B6B6B6"/>
</svg>
