<svg xmlns="http://www.w3.org/2000/svg" width="74" height="71" fill="none">
<path fill="#B6B6B6" d="M5.491 52.776v1.296c0 .96-.144 1.856-.432 2.688a5.844 5.844 0 0 1-1.328 2.176c-.586.619-1.317 1.083-2.192 1.392L.483 58.76c.758-.256 1.392-.624 1.904-1.104a4.392 4.392 0 0 0 1.12-1.632c.246-.619.368-1.27.368-1.952v-1.296h1.616Zm.384 0v1.472c0 .608.112 1.179.336 1.712a4.171 4.171 0 0 0 1.072 1.44c.491.427 1.099.752 1.824.976l-1.024 1.536c-.832-.277-1.536-.693-2.112-1.248a5.606 5.606 0 0 1-1.28-1.968 6.98 6.98 0 0 1-.416-2.448v-1.472h1.6Zm6.08-.768v8.496H9.971v-8.496h1.984Zm1.936 3.36V57h-2.48v-1.632h2.48ZM7.3 60.824c1.494 0 2.672.245 3.536.736.864.49 1.296 1.168 1.296 2.032 0 .565-.197 1.056-.592 1.472-.394.416-.954.73-1.68.944-.725.224-1.578.336-2.56.336-.992 0-1.85-.112-2.576-.336-.725-.213-1.285-.528-1.68-.944a2.068 2.068 0 0 1-.592-1.472c0-.576.198-1.067.592-1.472.395-.416.955-.736 1.68-.96.726-.224 1.584-.336 2.576-.336Zm-.016 1.536c-.938 0-1.653.107-2.144.32-.48.203-.72.507-.72.912 0 .395.24.699.72.912.491.203 1.206.304 2.144.304.939 0 1.654-.101 2.144-.304.491-.213.736-.517.736-.912 0-.405-.245-.71-.736-.912-.49-.213-1.205-.32-2.144-.32Zm17.889-7.024v1.6h-2.768v-1.6h2.768Zm1.472-3.328v8.288h-2v-8.288h2Zm0 8.88v5.296h-9.536v-5.296h9.536ZM19.06 62.44v2.176h5.648V62.44H19.06Zm.56-9.12v.944c0 .917-.15 1.781-.448 2.592a5.847 5.847 0 0 1-1.36 2.112c-.598.608-1.334 1.056-2.208 1.344l-1.008-1.568c.757-.256 1.392-.613 1.904-1.072.512-.459.89-.981 1.136-1.568.245-.597.368-1.21.368-1.84v-.944h1.616Zm.4 0v.928c0 .597.117 1.173.352 1.728a4.381 4.381 0 0 0 1.104 1.472c.49.437 1.098.779 1.824 1.024l-.992 1.552c-.854-.277-1.574-.704-2.16-1.28a5.753 5.753 0 0 1-1.296-2.032 7.2 7.2 0 0 1-.416-2.464v-.928h1.584Zm2.832-.576v1.584H15.14v-1.584h7.712ZM36.188 53c.725 0 1.37.208 1.936.624.576.416 1.018 1.013 1.328 1.792.32.768.48 1.664.48 2.688 0 1.035-.16 1.941-.48 2.72-.31.768-.752 1.36-1.328 1.776a3.182 3.182 0 0 1-1.936.624c-.726 0-1.371-.208-1.936-.624-.566-.416-1.008-1.013-1.328-1.792-.32-.779-.48-1.68-.48-2.704 0-1.024.16-1.92.48-2.688.32-.779.762-1.376 1.328-1.792A3.182 3.182 0 0 1 36.188 53Zm0 1.792c-.363 0-.683.133-.96.4-.278.256-.496.63-.656 1.12-.15.49-.224 1.088-.224 1.792s.074 1.307.224 1.808c.16.501.378.88.656 1.136.277.256.597.384.96.384.373 0 .698-.128.976-.384.277-.256.49-.635.64-1.136.16-.501.24-1.104.24-1.808s-.08-1.301-.24-1.792c-.15-.49-.363-.864-.64-1.12a1.363 1.363 0 0 0-.976-.4Zm7.376-2.784v14.336H41.58V52.008h1.984Zm2.112 5.44v1.632h-2.544v-1.632h2.544Zm2.672 4.016c1.397 0 2.597-.021 3.6-.064a30.631 30.631 0 0 0 3.056-.32l.176 1.584a34.82 34.82 0 0 1-3.12.336c-1.035.053-2.272.08-3.712.08h-1.232v-1.616h1.232Zm5.984-8.272v1.616h-5.264v7.2h-1.952v-8.816h7.216Zm-.592 4v1.552h-5.12v-1.552h5.12Zm4.512-5.184v14.336h-1.984V52.008h1.984Zm12.768.528v1.536h-9.088v-1.536h9.088Zm.736 0v1.232c0 .853-.021 1.6-.064 2.24a13.44 13.44 0 0 1-.288 2.08l-1.952-.192c.16-.747.262-1.413.304-2 .043-.597.064-1.307.064-2.128v-1.232h1.936Zm-1.344 3.76-8.672.352-.224-1.504 8.896-.208v1.36Zm2.848 1.28v1.536H60.348v-1.536H73.26Zm-1.408 2.432v3.76H63.74v1.568h-1.968v-2.992H69.9v-.848h-8.144v-1.488h10.096Zm.496 4.672v1.504H61.772V64.68h10.576Z"/>
<path stroke="#B6B6B6" stroke-linecap="round" stroke-linejoin="round" stroke-width="4" d="m19.458 8.333 30.401 29.68m-30.4-29.68a6.24 6.24 0 0 1 4.707-2.11h10.277m-14.985 2.11A5.82 5.82 0 0 0 18 12.183v21.856C18 37.331 20.76 40 24.166 40h22.61c3.406 0 6.166-2.669 6.166-5.96v-8.942m-18.498 0-13.36 12.915M49.01 8.756v-.127M56 8.609c0 4.405-6.989 10.28-6.989 10.28s-6.988-5.874-6.988-10.28c0-3.65 3.129-6.609 6.988-6.609C52.871 2 56 4.959 56 8.609Z"/>
</svg>