<svg xmlns="http://www.w3.org/2000/svg" width="42" height="65" fill="current">
<path fill="#B6B6B6" d="M7.975 54.024v2.208h-2v-2.208h2Zm5.504-1.184v1.584H.52V52.84h12.96Zm-1.568 2.848v4.656H9.943V57.24H1.96v-1.552h9.952Zm-7.776-9.312v1.296h5.728v-1.296h1.968v5.504H2.183v-5.504h1.952Zm0 3.952h5.728v-1.184H4.135v1.184ZM21.8 47.352v9.488h-6.832v-9.488H21.8Zm-4.88 1.568v6.352h2.928V48.92H16.92Zm8.8-2.912v14.336h-1.984V46.008h1.984Zm2.112 5.44v1.632h-2.544v-1.632h2.544ZM39 47.256v1.6h-9.04v-1.6H39Zm2.464 9.728v1.632h-12.96v-1.632h12.96Zm-1.344-9.728v1.68c0 1.376-.037 2.57-.112 3.584-.064 1.013-.245 2.208-.544 3.584l-1.952-.176c.288-1.27.47-2.41.544-3.424a49.31 49.31 0 0 0 .112-3.568v-1.68h1.952Zm-1.552 5.392-8.768.448-.24-1.6 9.008-.288v1.44ZM39.392 10.96c0 2.891-1.11 5.668-3.093 7.723-4.564 4.73-8.99 9.662-13.724 14.221a2.735 2.735 0 0 1-3.845-.084L5.092 18.683C.969 14.409.969 7.51 5.092 3.237a10.434 10.434 0 0 1 15.108 0l.495.514.496-.513C23.187 1.168 25.905 0 28.745 0s5.558 1.167 7.554 3.237c1.983 2.055 3.093 4.832 3.093 7.723Z"/>
</svg>