<svg xmlns="http://www.w3.org/2000/svg" width="42" height="71" fill="none">
<path fill="#B6B6B6" d="M12.423 51.992v7.216h-2v-7.216h2Zm-4.32.544c0 1.301-.245 2.416-.736 3.344-.49.917-1.226 1.675-2.208 2.272-.98.597-2.229 1.045-3.744 1.344l-.688-1.584c1.835-.341 3.163-.875 3.984-1.6.822-.725 1.232-1.605 1.232-2.64v-1.136h2.16Zm-.784 0v1.584H1.48v-1.584h5.84Zm5.104 7.264v3.856H4.887v1.616H2.92v-3.04h7.504v-.912H2.887V59.8h9.536Zm.352 4.864V66.2H2.92v-1.536h9.856Zm6.593-10.288v.528c0 .832-.155 1.605-.464 2.32a4.961 4.961 0 0 1-1.36 1.84c-.598.512-1.339.896-2.224 1.152l-.912-1.552c.747-.192 1.37-.48 1.872-.864.501-.395.874-.837 1.12-1.328a3.525 3.525 0 0 0 .368-1.568v-.528h1.6Zm.368 0v.528c0 .512.117.997.352 1.456.245.459.618.87 1.12 1.232.501.363 1.12.64 1.856.832l-.88 1.52c-.886-.224-1.632-.581-2.24-1.072a4.787 4.787 0 0 1-1.36-1.76 5.447 5.447 0 0 1-.448-2.208v-.528h1.6ZM22.6 53.4v1.568h-7.696V53.4H22.6Zm-2.864-1.456v2.176h-1.968v-2.176h1.968Zm6.032.064v8.176h-1.984v-8.176h1.984Zm1.936 3.232v1.616h-2.48V55.24h2.48ZM21.8 61.464v.352c0 .747-.208 1.435-.624 2.064-.416.619-1.024 1.136-1.824 1.552-.8.416-1.755.704-2.864.864l-.72-1.504c.938-.117 1.733-.325 2.384-.624.661-.31 1.152-.667 1.472-1.072.33-.405.496-.832.496-1.28v-.352h1.68Zm.432 0v.352c0 .427.165.848.496 1.264.33.405.821.768 1.472 1.088.65.31 1.44.523 2.368.64l-.704 1.504c-1.11-.15-2.064-.443-2.864-.88-.8-.427-1.408-.95-1.824-1.568a3.642 3.642 0 0 1-.624-2.048v-.352h1.68Zm3.728-.656v1.568h-9.568v-1.568h9.568Zm14.448-8.816v14.336h-1.984V51.992h1.984Zm-4.256 1.488c0 1.536-.208 2.933-.624 4.192-.405 1.259-1.093 2.41-2.064 3.456-.96 1.045-2.261 1.963-3.904 2.752l-1.024-1.568c1.355-.65 2.448-1.387 3.28-2.208.832-.821 1.435-1.739 1.808-2.752.373-1.024.56-2.197.56-3.52v-.352h1.968Zm-1.04 0v1.584h-5.84V53.48h5.84Z"/>
<rect width="40" height="40" x="1" fill="#B6B6B6" rx="6.275"/>
<path stroke="#fff" stroke-linecap="round" stroke-linejoin="round" stroke-width="2" d="M25.046 7.843 31 15.858m0 0-5.954 8.015M31 15.858H15.314a3.137 3.137 0 0 0-3.137 3.137v12.378"/>
</svg>