<svg xmlns="http://www.w3.org/2000/svg" width="42" height="72" fill="none">
<path fill="#B6B6B6" d="M5.575 55.232v1.696c0 1.12-.16 2.192-.48 3.216a8.383 8.383 0 0 1-1.376 2.72 5.84 5.84 0 0 1-2.192 1.776l-1.12-1.568a5.277 5.277 0 0 0 1.936-1.488 7.072 7.072 0 0 0 1.232-2.192c.278-.81.416-1.632.416-2.464v-1.696h1.584Zm.416 0v1.696c0 .8.134 1.584.4 2.352a6.29 6.29 0 0 0 1.232 2.048 5.414 5.414 0 0 0 1.952 1.392l-1.088 1.568a6.046 6.046 0 0 1-2.224-1.696 7.773 7.773 0 0 1-1.376-2.576c-.309-.97-.464-2-.464-3.088v-1.696h1.568ZM9 54.384v1.632H.967v-1.632H9Zm3.376-1.376v14.336h-1.984V53.008h1.984Zm13.713 6.4v1.584H16.04v-1.584h10.048Zm1.408 4.656v1.632H14.52v-1.632h12.976Zm-5.52-3.936v4.48h-1.984v-4.48h1.984Zm4-6.144v1.6h-7.952v4.528H16.04v-6.128h9.936Zm13.92 9.008v4.192h-9.888v-4.192h9.888Zm-7.952 1.472v1.248h6.016v-1.248h-6.016Zm8.816-10.448v1.504H29.112v-1.504H40.76Zm-5.792 1.872c1.547 0 2.73.176 3.552.528.822.352 1.232.859 1.232 1.52s-.41 1.168-1.232 1.52c-.821.352-2.005.528-3.552.528-1.536 0-2.715-.176-3.536-.528-.821-.352-1.232-.859-1.232-1.52s.405-1.168 1.216-1.52c.821-.352 2.006-.528 3.552-.528Zm0 1.328c-.928 0-1.605.059-2.032.176-.416.117-.624.299-.624.544 0 .245.214.427.64.544.427.107 1.099.16 2.016.16s1.59-.053 2.016-.16c.438-.117.656-.299.656-.544 0-.245-.213-.427-.64-.544-.426-.117-1.104-.176-2.032-.176Zm.992-4.336v2.192h-1.984V52.88h1.984Zm5.488 7.824v1.52h-12.96v-1.52h12.96Zm-5.488-1.2v2h-1.984v-2h1.984ZM21 41s16-14.26 16-24.956C37 7.183 29.837 0 21 0S5 7.183 5 16.044C5 26.739 21 41 21 41Z"/>
<path fill="#fff" d="M26.112 15.375A5.118 5.118 0 0 1 21 20.5a5.118 5.118 0 0 1-5.112-5.125 5.118 5.118 0 0 1 5.112-5.125 5.118 5.118 0 0 1 5.11 5.125Z"/>
</svg>