<svg xmlns="http://www.w3.org/2000/svg" width="74" height="74" fill="current">
<path fill="#B6B6B6" d="M7.987 56.352v9.488H1.155v-9.488h6.832Zm-4.88 1.568v6.352h2.928V57.92H3.107Zm8.8-2.912v14.336H9.923V55.008h1.984Zm2.112 5.44v1.632h-2.544v-1.632h2.544Zm12.529-5.472V69.36h-2V54.976h2ZM18.852 56c.714 0 1.354.208 1.92.624.576.416 1.024 1.013 1.344 1.792.32.768.48 1.664.48 2.688 0 1.024-.16 1.925-.48 2.704-.32.779-.768 1.376-1.344 1.792a3.158 3.158 0 0 1-1.92.624A3.252 3.252 0 0 1 16.9 65.6c-.566-.416-1.014-1.008-1.344-1.776-.32-.779-.48-1.685-.48-2.72 0-1.024.16-1.92.48-2.688.33-.779.778-1.376 1.344-1.792A3.252 3.252 0 0 1 18.852 56Zm0 1.792c-.374 0-.699.133-.976.4-.278.256-.496.63-.656 1.12-.15.49-.224 1.088-.224 1.792s.074 1.307.224 1.808c.16.501.378.88.656 1.136.277.256.602.384.976.384.362 0 .682-.128.96-.384.277-.256.49-.635.64-1.136.16-.501.24-1.104.24-1.808 0-.693-.08-1.285-.24-1.776-.15-.501-.363-.88-.64-1.136a1.344 1.344 0 0 0-.96-.4Zm25.912-2.784v14.336h-1.888V55.008h1.888Zm-4.176 5.248v1.728H38.62v-1.728h1.968Zm1.296-4.96v13.36h-1.84v-13.36h1.84Zm-2.912 1.344v1.568h-6.528V56.64h6.528Zm-6.768 7.808c3.04 0 5.37-.112 6.992-.336l.144 1.424c-.992.213-2.091.357-3.296.432a68.49 68.49 0 0 1-3.632.096l-.208-1.616Zm2.928-6.8v7.216h-1.776v-7.216h1.776Zm2.912 0v7.216h-1.792v-7.216h1.792Zm20.16-2.672V69.36h-2V54.976h2ZM50.508 56c.715 0 1.355.208 1.92.624.576.416 1.024 1.013 1.344 1.792.32.768.48 1.664.48 2.688 0 1.024-.16 1.925-.48 2.704-.32.779-.768 1.376-1.344 1.792a3.158 3.158 0 0 1-1.92.624 3.252 3.252 0 0 1-1.952-.624c-.565-.416-1.013-1.008-1.344-1.776-.32-.779-.48-1.685-.48-2.72 0-1.024.16-1.92.48-2.688.33-.779.779-1.376 1.344-1.792A3.252 3.252 0 0 1 50.508 56Zm0 1.792c-.373 0-.699.133-.976.4-.277.256-.496.63-.656 1.12-.15.49-.224 1.088-.224 1.792s.075 1.307.224 1.808c.16.501.379.88.656 1.136.277.256.603.384.976.384.363 0 .683-.128.96-.384.277-.256.49-.635.64-1.136.16-.501.24-1.104.24-1.808 0-.693-.08-1.285-.24-1.776-.15-.501-.363-.88-.64-1.136a1.344 1.344 0 0 0-.96-.4Zm14.864-.56v1.696c0 1.12-.16 2.192-.48 3.216a8.382 8.382 0 0 1-1.376 2.72 5.84 5.84 0 0 1-2.192 1.776l-1.12-1.568a5.277 5.277 0 0 0 1.936-1.488 7.07 7.07 0 0 0 1.232-2.192c.278-.81.416-1.632.416-2.464v-1.696h1.584Zm.416 0v1.696c0 .8.134 1.584.4 2.352a6.29 6.29 0 0 0 1.232 2.048 5.414 5.414 0 0 0 1.952 1.392l-1.088 1.568a6.046 6.046 0 0 1-2.224-1.696 7.772 7.772 0 0 1-1.376-2.576c-.309-.97-.464-2-.464-3.088v-1.696h1.568Zm3.008-.848v1.632h-8.032v-1.632h8.032Zm3.376-1.376v14.336h-1.984V55.008h1.984ZM15 40.564c0-8.455 7.064-15.31 21.5-15.31S58 32.109 58 40.564C58 41.91 57.019 43 55.808 43H17.192C15.982 43 15 41.91 15 40.564ZM44.563 8.063a8.062 8.062 0 1 1-16.125 0 8.062 8.062 0 0 1 16.125 0Z"/>
</svg>